<svg width="419" height="589" viewBox="0 0 419 589" fill="none" xmlns="http://www.w3.org/2000/svg">
<path fill-rule="evenodd" clip-rule="evenodd" d="M121.949 0.0492256C166.465 -1.1654 213.18 20.1917 242.42 53.7239C271.367 86.9183 247.512 147.459 278.117 179.137C313.598 215.861 410.26 185.544 418.435 235.91C426.944 288.335 337.006 302.722 305.069 345.195C287.648 368.363 292.909 402.549 275.632 425.823C258.144 449.384 228.649 459.284 206.277 478.286C176.708 503.402 157.154 540.021 121.949 556.361C80.6483 575.53 26.8896 604.331 -11.0312 579.145C-51.4369 552.309 -30.2359 485.025 -51.2289 441.344C-66.7779 408.989 -100.566 389.74 -117.317 357.989C-136.989 320.698 -177.661 276.843 -157.566 239.778C-134.556 197.334 -56.9057 222.69 -24.534 186.847C4.88596 154.272 -22.4751 94.7489 4.60754 60.2126C32.0568 25.2089 77.4367 1.26374 121.949 0.0492256Z" fill="#CAEAD4"/>
<path fill-rule="evenodd" clip-rule="evenodd" d="M82.2476 148.035C113.531 147.181 146.36 162.192 166.909 185.762C187.251 209.094 170.487 251.647 191.994 273.913C216.928 299.726 284.858 278.416 290.603 313.818C296.583 350.667 233.379 360.779 210.935 390.633C198.693 406.917 202.389 430.946 190.248 447.305C177.958 463.866 157.231 470.824 141.509 484.181C120.729 501.834 106.988 527.574 82.2476 539.059C53.2236 552.532 15.4448 572.776 -11.2041 555.073C-39.5991 536.211 -24.7001 488.918 -39.4529 458.214C-50.38 435.473 -74.1247 421.943 -85.896 399.625C-99.7211 373.414 -128.303 342.589 -114.181 316.536C-98.0109 286.703 -43.4424 304.526 -20.6932 279.332C-0.0182953 256.436 -19.2463 214.598 -0.213951 190.323C19.076 165.719 50.9667 148.888 82.2476 148.035Z" fill="#009254"/>
</svg>
