<svg width="24" height="25" viewBox="0 0 24 25" fill="none" xmlns="http://www.w3.org/2000/svg">
<g id="Group">
<path id="Vector" d="M10.232 10.731C11.1391 9.82393 12.3602 9.30022 13.6426 9.26821C14.925 9.23619 16.1707 9.69832 17.122 10.559L17.303 10.731L20.131 13.56C21.052 14.4827 21.5763 15.7286 21.592 17.0322C21.6077 18.3358 21.1136 19.594 20.215 20.5385C19.3165 21.4831 18.0845 22.0394 16.7818 22.0888C15.479 22.1382 14.2085 21.6768 13.241 20.803L13.061 20.631L10.939 18.509C10.7596 18.329 10.6555 18.0876 10.6478 17.8336C10.64 17.5797 10.7292 17.3323 10.8972 17.1417C11.0653 16.9511 11.2995 16.8317 11.5525 16.8076C11.8054 16.7835 12.058 16.8566 12.259 17.012L12.353 17.095L14.475 19.217C15.0251 19.7703 15.769 20.0875 16.5491 20.1014C17.3292 20.1152 18.084 19.8247 18.6534 19.2913C19.2228 18.7579 19.562 18.0237 19.5991 17.2444C19.6362 16.4651 19.3682 15.702 18.852 15.117L18.717 14.974L15.889 12.146C15.6104 11.8674 15.2797 11.6463 14.9157 11.4955C14.5516 11.3447 14.1615 11.2671 13.7675 11.2671C13.3735 11.2671 12.9833 11.3447 12.6193 11.4955C12.2553 11.6463 11.9246 11.8674 11.646 12.146C11.4583 12.3335 11.2039 12.4388 10.9386 12.4387C10.6734 12.4386 10.419 12.3331 10.2315 12.1455C10.044 11.9579 9.93869 11.7034 9.93878 11.4381C9.93888 11.1729 10.0443 10.9185 10.232 10.731ZM3.86799 4.36699C4.77512 3.45993 5.99618 2.93622 7.27861 2.90421C8.56105 2.87219 9.80673 3.33432 10.758 4.19499L10.939 4.36699L13.06 6.48999C13.2393 6.66995 13.3435 6.91143 13.3512 7.16538C13.359 7.41933 13.2698 7.66671 13.1017 7.85727C12.9337 8.04784 12.6994 8.1673 12.4465 8.19139C12.1936 8.21549 11.941 8.1424 11.74 7.98699L11.646 7.90399L9.52498 5.78299C8.97395 5.23555 8.23207 4.92317 7.45542 4.91157C6.67877 4.89996 5.92789 5.19004 5.36075 5.72078C4.79361 6.25152 4.45443 6.98153 4.41456 7.75725C4.37469 8.53297 4.63725 9.29391 5.14698 9.87999L5.28199 10.024L8.11098 12.853C8.67357 13.4154 9.43649 13.7314 10.232 13.7314C11.0275 13.7314 11.7904 13.4154 12.353 12.853C12.4458 12.7601 12.5561 12.6864 12.6774 12.6361C12.7987 12.5858 12.9288 12.5598 13.0601 12.5598C13.1915 12.5597 13.3216 12.5856 13.4429 12.6358C13.5643 12.686 13.6746 12.7596 13.7675 12.8525C13.8604 12.9453 13.9341 13.0556 13.9844 13.1769C14.0347 13.2982 14.0606 13.4283 14.0607 13.5596C14.0607 13.691 14.0349 13.8211 13.9847 13.9424C13.9345 14.0638 13.8608 14.1741 13.768 14.267C12.8609 15.1741 11.6398 15.6978 10.3574 15.7298C9.07492 15.7618 7.82925 15.2997 6.87799 14.439L6.69598 14.267L3.86799 11.438C2.93063 10.5004 2.40405 9.22881 2.40405 7.90299C2.40405 6.57717 2.93063 5.30463 3.86799 4.36699Z" fill="white"/>
</g>
</svg>
