<svg width="319" height="208" viewBox="0 0 319 208" fill="none" xmlns="http://www.w3.org/2000/svg">
<path d="M315.199 207.875C315.73 208.027 316.284 207.72 316.436 207.189L318.911 198.536C319.063 198.005 318.755 197.451 318.224 197.299C317.693 197.147 317.14 197.455 316.988 197.986L314.788 205.677L307.096 203.477C306.565 203.325 306.012 203.633 305.86 204.164C305.708 204.695 306.015 205.248 306.546 205.4L315.199 207.875ZM80.2333 81.8736L81.2283 81.9731L80.2333 81.8736ZM257.148 129.629L257.792 128.864L257.148 129.629ZM94.3019 11.1816L94.9081 10.3862L94.3019 11.1816ZM181.272 146.65L180.761 145.791L181.272 146.65ZM315.474 206.914C316.348 206.428 316.348 206.428 316.348 206.428C316.348 206.428 316.348 206.428 316.348 206.428C316.348 206.428 316.348 206.428 316.348 206.428C316.348 206.428 316.348 206.428 316.348 206.428C316.348 206.427 316.348 206.427 316.347 206.426C316.347 206.425 316.346 206.423 316.344 206.421C316.341 206.416 316.337 206.408 316.332 206.399C316.321 206.379 316.305 206.351 316.284 206.313C316.242 206.237 316.179 206.125 316.096 205.978C315.93 205.683 315.684 205.248 315.362 204.686L313.626 205.68C313.946 206.238 314.19 206.668 314.353 206.959C314.435 207.105 314.497 207.215 314.538 207.289C314.559 207.326 314.575 207.354 314.585 207.372C314.59 207.381 314.594 207.388 314.596 207.393C314.598 207.395 314.598 207.397 314.599 207.398C314.599 207.398 314.6 207.399 314.6 207.399C314.6 207.399 314.6 207.399 314.6 207.399C314.6 207.399 314.6 207.399 314.6 207.399C314.6 207.399 314.6 207.399 314.6 207.399C314.6 207.399 314.6 207.399 315.474 206.914ZM313.311 201.153C312.701 200.115 312.005 198.942 311.231 197.654L309.517 198.683C310.287 199.966 310.98 201.133 311.587 202.166L313.311 201.153ZM309.136 194.198C308.461 193.097 307.746 191.938 306.992 190.73L305.295 191.789C306.046 192.992 306.758 194.146 307.43 195.242L309.136 194.198ZM304.835 187.305C304.13 186.196 303.399 185.054 302.642 183.886L300.964 184.973C301.717 186.136 302.445 187.273 303.147 188.378L304.835 187.305ZM300.418 180.482C299.685 179.371 298.933 178.242 298.163 177.097L296.504 178.213C297.27 179.353 298.019 180.477 298.748 181.583L300.418 180.482ZM295.879 173.734C295.123 172.632 294.352 171.519 293.566 170.398L291.928 171.546C292.71 172.661 293.477 173.769 294.23 174.866L295.879 173.734ZM291.219 167.084C290.436 165.991 289.641 164.893 288.836 163.793L287.223 164.975C288.024 166.069 288.814 167.161 289.593 168.248L291.219 167.084ZM286.415 160.529C285.604 159.449 284.783 158.37 283.954 157.294L282.37 158.515C283.194 159.584 284.009 160.656 284.816 161.73L286.415 160.529ZM281.45 154.09C280.608 153.027 279.757 151.97 278.9 150.921L277.352 152.187C278.202 153.228 279.046 154.277 279.883 155.332L281.45 154.09ZM276.301 147.792C275.422 146.751 274.537 145.721 273.646 144.705L272.142 146.023C273.024 147.03 273.901 148.05 274.773 149.082L276.301 147.792ZM270.932 141.668C270.01 140.657 269.083 139.663 268.152 138.688L266.706 140.069C267.625 141.032 268.542 142.016 269.455 143.016L270.932 141.668ZM265.299 135.772C264.323 134.801 263.344 133.854 262.363 132.934L260.995 134.393C261.96 135.298 262.925 136.232 263.888 137.19L265.299 135.772ZM259.334 130.188C258.82 129.738 258.306 129.297 257.792 128.864L256.504 130.394C257.008 130.818 257.512 131.251 258.017 131.693L259.334 130.188ZM257.792 128.864C257.295 128.446 256.793 128.026 256.286 127.603L255.006 129.14C255.51 129.56 256.009 129.978 256.504 130.394L257.792 128.864ZM253.189 125.047C252.175 124.217 251.144 123.381 250.097 122.539L248.844 124.098C249.886 124.936 250.913 125.769 251.922 126.595L253.189 125.047ZM246.943 120.025C245.915 119.213 244.874 118.397 243.82 117.577L242.592 119.156C243.642 119.972 244.679 120.786 245.702 121.594L246.943 120.025ZM240.633 115.117C239.589 114.318 238.533 113.516 237.467 112.712L236.263 114.309C237.325 115.11 238.377 115.909 239.417 116.705L240.633 115.117ZM234.249 110.305C233.19 109.519 232.121 108.731 231.043 107.943L229.863 109.558C230.937 110.343 232.002 111.127 233.057 111.911L234.249 110.305ZM227.794 105.585C226.721 104.813 225.64 104.04 224.551 103.268L223.394 104.899C224.479 105.669 225.556 106.438 226.625 107.208L227.794 105.585ZM221.27 100.959C220.184 100.201 219.09 99.4435 217.991 98.6881L216.859 100.336C217.954 101.089 219.043 101.843 220.125 102.599L221.27 100.959ZM214.679 96.4296C213.579 95.6858 212.474 94.9444 211.364 94.206L210.256 95.8711C211.362 96.6067 212.463 97.3453 213.558 98.0863L214.679 96.4296ZM208.021 92.0004C206.907 91.2719 205.789 90.5469 204.668 89.8261L203.586 91.5085C204.703 92.2264 205.817 92.9485 206.926 93.6742L208.021 92.0004ZM201.293 87.6767C200.165 86.9645 199.034 86.2571 197.9 85.5549L196.847 87.2551C197.976 87.9543 199.102 88.6587 200.226 89.3679L201.293 87.6767ZM194.493 83.4645C193.35 82.7705 192.206 82.0824 191.06 81.4007L190.037 83.1196C191.178 83.7981 192.317 84.483 193.454 85.1739L194.493 83.4645ZM187.615 79.3735C186.458 78.6999 185.3 78.0334 184.142 77.3746L183.153 79.113C184.305 79.7685 185.458 80.4317 186.609 81.102L187.615 79.3735ZM180.657 75.4164C179.485 74.7657 178.312 74.1234 177.141 73.4902L176.19 75.2495C177.355 75.8791 178.52 76.5179 179.687 77.1652L180.657 75.4164ZM173.613 71.6092C172.424 70.9842 171.237 70.3693 170.052 69.7651L169.143 71.5469C170.321 72.1472 171.501 72.7583 172.683 73.3795L173.613 71.6092ZM166.477 67.9723C165.27 67.3768 164.066 66.7931 162.865 66.222L162.006 68.0281C163.198 68.595 164.394 69.1745 165.593 69.766L166.477 67.9723ZM159.242 64.5324C158.014 63.971 156.79 63.4236 155.572 62.8911L154.771 64.7237C155.979 65.2517 157.192 65.7945 158.411 66.3514L159.242 64.5324ZM151.9 61.3249C150.647 60.8038 149.4 60.2996 148.161 59.813L147.43 61.6746C148.657 62.1562 149.891 62.6554 151.132 63.1716L151.9 61.3249ZM144.442 58.3977C143.16 57.9259 141.887 57.4744 140.624 57.0441L139.979 58.9373C141.226 59.3621 142.484 59.8082 143.751 60.2746L144.442 58.3977ZM136.821 55.8045C135.519 55.3998 134.229 55.0195 132.952 54.6648L132.417 56.5918C133.674 56.9408 134.944 57.3154 136.227 57.7143L136.821 55.8045ZM129.048 53.6514C127.733 53.3346 126.433 53.0475 125.149 52.7914L124.758 54.7528C126.014 55.0035 127.289 55.2849 128.58 55.5958L129.048 53.6514ZM121.136 52.0849C119.776 51.8789 118.438 51.7114 117.122 51.5845L116.93 53.5752C118.208 53.6985 119.51 53.8614 120.836 54.0623L121.136 52.0849ZM113.107 51.3221C111.715 51.2769 110.353 51.283 109.021 51.3428L109.111 53.3408C110.387 53.2834 111.698 53.2774 113.042 53.321L113.107 51.3221ZM104.944 51.7114C103.562 51.9036 102.221 52.1637 100.923 52.4955L101.418 54.4332C102.639 54.1212 103.907 53.8749 105.219 53.6923L104.944 51.7114ZM97.0148 53.7689C95.7232 54.2894 94.4867 54.8967 93.3097 55.595L94.3303 57.315C95.4159 56.6709 96.5608 56.1081 97.7624 55.6239L97.0148 53.7689ZM89.9256 57.9984C88.8767 58.883 87.8941 59.8606 86.9816 60.9343L88.5055 62.2295C89.3469 61.2396 90.2511 60.3402 91.215 59.5272L89.9256 57.9984ZM84.5637 64.2739C83.8685 65.4038 83.2335 66.6118 82.661 67.8998L84.4885 68.7122C85.0267 67.5017 85.6206 66.3727 86.2671 65.3219L84.5637 64.2739ZM81.2179 71.7304C80.8174 73.0003 80.4668 74.3337 80.1677 75.7322L82.1234 76.1505C82.4102 74.8103 82.7449 73.5382 83.1253 72.3321L81.2179 71.7304ZM79.4841 79.6791C79.3914 80.3639 79.3094 81.0622 79.2382 81.7742L81.2283 81.9731C81.2972 81.2836 81.3765 80.6084 81.466 79.9474L79.4841 79.6791ZM79.2382 81.7742C79.168 82.4772 79.1072 83.1759 79.0559 83.8702L81.0504 84.0178C81.1005 83.3407 81.1598 82.6592 81.2283 81.9731L79.2382 81.7742ZM78.8585 88.0019C78.8287 89.409 78.8383 90.7969 78.8858 92.1653L80.8847 92.0958C80.8384 90.765 80.8291 89.4144 80.858 88.0442L78.8585 88.0019ZM79.1517 96.325C79.2827 97.7233 79.4543 99.0997 79.665 100.454L81.6412 100.146C81.4368 98.8326 81.2702 97.4966 81.143 96.1385L79.1517 96.325ZM80.4329 104.54C80.7353 105.908 81.0786 107.251 81.4612 108.569L83.3819 108.012C83.0114 106.735 82.6788 105.434 82.3858 104.109L80.4329 104.54ZM82.7565 112.535C83.2362 113.853 83.7564 115.143 84.315 116.405L86.1439 115.596C85.6034 114.375 85.1001 113.126 84.6359 111.851L82.7565 112.535ZM86.131 120.159C86.782 121.396 87.4714 122.603 88.1969 123.78L89.8994 122.73C89.1975 121.592 88.5305 120.424 87.9007 119.228L86.131 120.159ZM90.5023 127.252C91.312 128.386 92.1568 129.49 93.0343 130.561L94.5815 129.293C93.7318 128.256 92.914 127.188 92.1302 126.09L90.5023 127.252ZM95.7785 133.695C96.7285 134.712 97.7094 135.695 98.7189 136.645L100.09 135.189C99.1108 134.268 98.1601 133.314 97.2396 132.33L95.7785 133.695ZM101.839 139.403C102.908 140.29 104.004 141.143 105.123 141.962L106.304 140.347C105.217 139.552 104.154 138.724 103.116 137.864L101.839 139.403ZM108.554 144.317C109.721 145.068 110.909 145.784 112.117 146.465L113.099 144.723C111.925 144.061 110.77 143.365 109.637 142.635L108.554 144.317ZM115.796 148.404C117.041 149.015 118.303 149.591 119.579 150.131L120.358 148.29C119.116 147.764 117.889 147.204 116.678 146.609L115.796 148.404ZM123.451 151.645C124.756 152.114 126.073 152.547 127.4 152.944L127.972 151.027C126.68 150.641 125.398 150.22 124.127 149.763L123.451 151.645ZM131.414 154.024C132.763 154.348 134.119 154.635 135.48 154.884L135.841 152.917C134.515 152.674 133.194 152.395 131.881 152.079L131.414 154.024ZM139.588 155.521C140.965 155.696 142.345 155.833 143.725 155.931L143.866 153.936C142.523 153.84 141.18 153.707 139.84 153.537L139.588 155.521ZM147.879 156.108C149.268 156.129 150.656 156.109 152.039 156.05L151.953 154.052C150.608 154.109 149.259 154.128 147.908 154.109L147.879 156.108ZM156.189 155.749C157.573 155.608 158.949 155.425 160.316 155.2L159.992 153.227C158.666 153.445 157.329 153.622 155.986 153.76L156.189 155.749ZM164.403 154.398C165.759 154.086 167.103 153.732 168.432 153.335L167.859 151.419C166.572 151.804 165.27 152.147 163.956 152.448L164.403 154.398ZM172.384 152.008C173.687 151.52 174.973 150.988 176.237 150.411L175.408 148.592C174.186 149.149 172.944 149.663 171.683 150.134L172.384 152.008ZM179.97 148.545C180.58 148.211 181.185 147.866 181.784 147.51L180.761 145.791C180.183 146.135 179.6 146.468 179.011 146.79L179.97 148.545ZM181.784 147.51C182.393 147.147 182.981 146.776 183.548 146.397L182.437 144.734C181.9 145.093 181.341 145.446 180.761 145.791L181.784 147.51ZM186.78 143.961C187.851 143.045 188.82 142.092 189.688 141.103L188.185 139.784C187.383 140.697 186.483 141.583 185.481 142.44L186.78 143.961ZM192.135 137.805C192.87 136.615 193.481 135.385 193.975 134.117L192.111 133.392C191.662 134.546 191.104 135.668 190.433 136.755L192.135 137.805ZM195.114 130.16C195.372 128.83 195.518 127.469 195.559 126.083L193.56 126.024C193.522 127.309 193.387 128.561 193.151 129.779L195.114 130.16ZM195.391 122.006C195.248 120.69 195.023 119.354 194.72 118.001L192.768 118.438C193.056 119.724 193.268 120.985 193.402 122.221L195.391 122.006ZM193.651 114.099C193.248 112.848 192.785 111.582 192.267 110.305L190.414 111.058C190.915 112.293 191.361 113.511 191.747 114.712L193.651 114.099ZM190.647 106.65C190.085 105.476 189.479 104.293 188.832 103.101L187.075 104.055C187.706 105.219 188.296 106.372 188.843 107.514L190.647 106.65ZM186.851 99.6346C186.176 98.5087 185.467 97.3763 184.726 96.2384L183.05 97.3295C183.778 98.448 184.474 99.5595 185.136 100.663L186.851 99.6346ZM182.505 92.9445C181.759 91.8743 180.987 90.7997 180.191 89.7216L178.582 90.9102C179.368 91.9742 180.13 93.0338 180.864 94.0881L182.505 92.9445ZM177.779 86.5421C176.977 85.5102 176.153 84.4755 175.31 83.4387L173.758 84.7004C174.593 85.7265 175.407 86.7498 176.2 87.7699L177.779 86.5421ZM172.779 80.3881C171.928 79.3824 171.06 78.3752 170.176 77.367L168.672 78.6856C169.549 79.6852 170.409 80.6835 171.252 81.6799L172.779 80.3881ZM167.549 74.4192C166.667 73.445 165.771 72.4704 164.862 71.4959L163.399 72.8598C164.302 73.8275 165.191 74.7949 166.066 75.7616L167.549 74.4192ZM162.138 68.6138C161.23 67.6661 160.312 66.7189 159.383 65.7727L157.956 67.1738C158.879 68.1144 159.792 69.0556 160.694 69.9972L162.138 68.6138ZM156.582 62.953C155.653 62.0275 154.714 61.1035 153.768 60.1812L152.372 61.6134C153.314 62.5309 154.247 63.4501 155.171 64.3703L156.582 62.953ZM150.914 57.4271C149.963 56.5182 149.005 55.6115 148.041 54.7072L146.673 56.1659C147.632 57.0661 148.586 57.9686 149.532 58.8731L150.914 57.4271ZM145.14 52.0102C144.171 51.1168 143.197 50.2262 142.219 49.3391L140.875 50.8206C141.849 51.7042 142.82 52.5911 143.785 53.4807L145.14 52.0102ZM139.276 46.6911C138.292 45.8124 137.304 44.9375 136.315 44.0667L134.993 45.5682C135.98 46.4359 136.963 47.3076 137.943 48.1829L139.276 46.6911ZM133.333 41.461C132.335 40.5958 131.337 39.7352 130.338 38.8795L129.037 40.3986C130.033 41.2515 131.028 42.1093 132.022 42.9716L133.333 41.461ZM127.321 36.3127C126.311 35.4586 125.302 34.6101 124.293 33.7675L123.011 35.3023C124.016 36.1424 125.023 36.9884 126.03 37.8398L127.321 36.3127ZM121.251 31.2401C120.228 30.3953 119.207 29.5571 118.19 28.7258L116.925 30.2747C117.939 31.1037 118.957 31.9397 119.977 32.7821L121.251 31.2401ZM115.13 26.2393C114.094 25.4017 113.062 24.572 112.036 23.7506L110.786 25.3122C111.81 26.1316 112.839 26.9592 113.873 27.7946L115.13 26.2393ZM108.949 21.2922C107.906 20.4654 106.869 19.6478 105.84 18.84L104.605 20.4131C105.632 21.219 106.666 22.0347 107.707 22.8597L108.949 21.2922ZM102.719 16.4001C101.673 15.5865 100.637 14.7841 99.6122 13.9932L98.3905 15.5767C99.4134 16.3659 100.447 17.1667 101.49 17.9785L102.719 16.4001ZM96.4568 11.5689C95.9373 11.1714 95.4209 10.7771 94.9081 10.3862L93.6957 11.9769C94.2076 12.367 94.7229 12.7605 95.2415 13.1573L96.4568 11.5689ZM94.9081 10.3862C94.3737 9.97897 93.8391 9.57538 93.3043 9.17538L92.1064 10.7769C92.6364 11.1734 93.1662 11.5733 93.6957 11.9769L94.9081 10.3862ZM90.0856 6.81236C88.9974 6.02821 87.909 5.25872 86.8212 4.50367L85.6808 6.14667C86.759 6.89509 87.8378 7.65779 88.9164 8.435L90.0856 6.81236ZM83.5122 2.24952C82.3961 1.50339 81.2814 0.772236 80.1687 0.0557727L79.0859 1.73736C80.1891 2.44767 81.2943 3.17252 82.4007 3.91219L83.5122 2.24952ZM76.7919 -2.07785C75.6525 -2.78432 74.516 -3.4755 73.3832 -4.15173L72.3581 -2.43441C73.4813 -1.76388 74.6082 -1.07853 75.738 -0.378066L76.7919 -2.07785ZM69.9285 -6.1749C68.7612 -6.84548 67.5987 -7.50025 66.442 -8.13954L65.4745 -6.38908C66.6218 -5.75505 67.7746 -5.10569 68.9322 -4.4407L69.9285 -6.1749ZM62.9261 -10.0451C61.7372 -10.6769 60.5555 -11.2924 59.3818 -11.8919L58.472 -10.1108C59.6362 -9.51613 60.8084 -8.90566 61.9875 -8.279L62.9261 -10.0451ZM55.8097 -13.6803C54.5996 -14.274 53.3995 -14.8506 52.2103 -15.4105L51.3583 -13.6011C52.5379 -13.0457 53.7284 -12.4737 54.9288 -11.8847L55.8097 -13.6803ZM48.584 -17.083C47.3522 -17.6393 46.134 -18.1774 44.9308 -18.6979L44.1368 -16.8623C45.3304 -16.3459 46.5389 -15.8121 47.7609 -15.2603L48.584 -17.083ZM41.2509 -20.2551C39.9961 -20.7744 38.7601 -21.274 37.5444 -21.7546L36.8092 -19.8946C38.0151 -19.4179 39.2413 -18.9223 40.4861 -18.4071L41.2509 -20.2551ZM33.8119 -23.1957C32.5324 -23.6779 31.2793 -24.1382 30.0547 -24.5772L29.3797 -22.6946C30.5943 -22.2591 31.8373 -21.8026 33.1065 -21.3242L33.8119 -23.1957ZM26.276 -25.8971C24.9719 -26.3407 23.7065 -26.7586 22.4828 -27.1519L21.8707 -25.2479C23.084 -24.8579 24.3388 -24.4435 25.6321 -24.0036L26.276 -25.8971ZM18.6808 -28.3383C17.3288 -28.7472 16.0412 -29.1229 14.8229 -29.4672L14.279 -27.5425C15.4858 -27.2015 16.7617 -26.8293 18.1017 -26.4239L18.6808 -28.3383ZM10.9679 -30.5163C9.52752 -30.8929 8.22727 -31.2151 7.08035 -31.4877L6.61787 -29.5419C7.75076 -29.2727 9.0365 -28.9541 10.462 -28.5814L10.9679 -30.5163ZM3.17071 -32.3608C2.53394 -32.4926 2.04462 -32.5877 1.71313 -32.6502C1.54739 -32.6814 1.42113 -32.7045 1.33562 -32.7198C1.29286 -32.7275 1.2603 -32.7332 1.2381 -32.7371C1.22699 -32.7391 1.21848 -32.7405 1.21255 -32.7416C1.2096 -32.7421 1.20732 -32.7425 1.20565 -32.7428C1.20483 -32.7429 1.20417 -32.743 1.20366 -32.7431C1.20343 -32.7432 1.20322 -32.7432 1.20306 -32.7432C1.20296 -32.7432 1.2029 -32.7433 1.20283 -32.7433C1.20279 -32.7433 1.20276 -32.7433 1.20276 -32.7433C1.20272 -32.7433 1.20269 -32.7433 1.03409 -31.7576C0.865525 -30.7719 0.865492 -30.7719 0.865462 -30.7719C0.865458 -30.7719 0.865429 -30.7719 0.865424 -30.7719C0.86542 -30.7719 0.865391 -30.7719 0.865391 -30.7719C0.865391 -30.7719 0.865429 -30.7719 0.865521 -30.7719C0.865664 -30.7719 0.865996 -30.7718 0.866492 -30.7717C0.867468 -30.7716 0.869079 -30.7713 0.871359 -30.7709C0.875918 -30.7701 0.883084 -30.7689 0.892824 -30.7672C0.912308 -30.7637 0.942131 -30.7585 0.982122 -30.7513C1.06212 -30.7369 1.18279 -30.7149 1.34286 -30.6847C1.66297 -30.6245 2.14063 -30.5316 2.76544 -30.4023L3.17071 -32.3608Z" fill="#009254"/>
</svg>
