<svg width="317" height="238" viewBox="0 0 317 238" fill="none" xmlns="http://www.w3.org/2000/svg">
<path d="M4.2776 0.268135C3.74495 0.122175 3.19483 0.435651 3.04887 0.968305L0.670369 9.64832C0.524413 10.181 0.837892 10.7311 1.37054 10.877C1.90319 11.023 2.45331 10.7095 2.59926 10.1769L4.71349 2.46131L12.4291 4.57553C12.9617 4.72149 13.5118 4.40801 13.6578 3.87536C13.8037 3.34271 13.4903 2.79259 12.9576 2.64663L4.2776 0.268135ZM240.635 123.641L239.638 123.552L240.635 123.641ZM63.1982 77.8616L62.563 78.6339L63.1982 77.8616ZM227.355 194.485L226.758 195.287L227.355 194.485ZM138.879 59.995L139.4 60.8485L138.879 59.995ZM4.01332 1.23258C3.14448 1.72767 3.14449 1.72769 3.14449 1.7277C3.1445 1.72771 3.14451 1.72772 3.14452 1.72774C3.14454 1.72777 3.14456 1.72782 3.14459 1.72786C3.14465 1.72797 3.14473 1.7281 3.14482 1.72828C3.14502 1.72863 3.14531 1.72913 3.14567 1.72978C3.14641 1.73107 3.14749 1.73294 3.14889 1.73541C3.15171 1.74035 3.15587 1.74762 3.16136 1.75723C3.17234 1.77643 3.18866 1.80493 3.21022 1.84251C3.25336 1.91768 3.31752 2.02922 3.40212 2.17555C3.57131 2.46822 3.82223 2.90007 4.15011 3.45855L5.87483 2.44596C5.54931 1.8915 5.30065 1.46353 5.13361 1.17458C5.0501 1.03011 4.98698 0.920411 4.94488 0.847035C4.92383 0.810347 4.90802 0.782742 4.89754 0.764422C4.8923 0.755261 4.8884 0.748416 4.88583 0.743923C4.88454 0.741673 4.8836 0.740008 4.88298 0.738936C4.88268 0.7384 4.88246 0.73801 4.88232 0.73777C4.88225 0.737647 4.8822 0.737565 4.88217 0.737518C4.88216 0.737492 4.88216 0.737477 4.88215 0.737474C4.88215 0.737473 4.88215 0.737474 4.88215 0.737474C4.88216 0.737477 4.88216 0.737488 4.01332 1.23258ZM6.24063 6.9691C6.86248 8.00039 7.57085 9.16476 8.35912 10.4447L10.0621 9.39597C9.27726 8.12158 8.57215 6.96256 7.95336 5.93635L6.24063 6.9691ZM10.4933 13.8768C11.1799 14.9705 11.9082 16.121 12.6755 17.3207L14.3604 16.2432C13.5963 15.0483 12.8709 13.9027 12.1872 12.8135L10.4933 13.8768ZM14.8701 20.7213C15.5876 21.823 16.3318 22.956 17.1012 24.1159L18.7679 23.0104C18.0017 21.8553 17.2605 20.727 16.546 19.6299L14.8701 20.7213ZM19.3636 27.4951C20.1085 28.5973 20.873 29.7183 21.6556 30.8544L23.3027 29.7198C22.5235 28.5888 21.7624 27.4727 21.0207 26.3752L19.3636 27.4951ZM23.9772 34.1913C24.7458 35.2852 25.5295 36.3895 26.3271 37.5014L27.9522 36.3356C27.1586 35.2292 26.3786 34.1302 25.6136 33.0414L23.9772 34.1913ZM28.7113 40.7894C29.5062 41.8739 30.3132 42.9627 31.131 44.0531L32.731 42.8531C31.9177 41.7687 31.1151 40.6858 30.3243 39.607L28.7113 40.7894ZM33.5883 47.2901C34.4113 48.361 35.2439 49.4311 36.0852 50.4978L37.6555 49.2593C36.8196 48.1994 35.9922 47.136 35.1741 46.0714L33.5883 47.2901ZM38.6246 53.6734C39.4789 54.7267 40.3408 55.7742 41.2096 56.8135L42.7441 55.5307C41.8819 54.4994 41.0262 53.4595 40.1779 52.4136L38.6246 53.6734ZM43.8441 59.9141C44.7345 60.9447 45.631 61.9643 46.5325 62.9705L48.0221 61.6359C47.129 60.6391 46.2404 59.6285 45.3575 58.6065L43.8441 59.9141ZM49.2802 65.977C50.2138 66.9778 51.1519 67.9619 52.0933 68.9264L53.5245 67.5294C52.5942 66.5763 51.6666 65.6031 50.7426 64.6127L49.2802 65.977ZM54.9793 71.8097C55.9662 72.7701 56.9557 73.7063 57.9468 74.6152L59.2986 73.1412C58.323 72.2465 57.3477 71.3238 56.3741 70.3763L54.9793 71.8097ZM61.0061 77.3277C61.525 77.7715 62.044 78.2071 62.563 78.6339L63.8334 77.0892C63.3247 76.6709 62.8156 76.2436 62.3062 75.8079L61.0061 77.3277ZM62.563 78.6339C63.0647 79.0465 63.5713 79.4611 64.0827 79.8776L65.3458 78.327C64.8368 77.9124 64.3326 77.4997 63.8334 77.0892L62.563 78.6339ZM67.2081 82.3997C68.2313 83.2178 69.2715 84.0423 70.3279 84.8723L71.5635 83.2996C70.5116 82.4731 69.4758 81.6521 68.4571 80.8377L67.2081 82.3997ZM73.5099 87.3511C74.5462 88.1516 75.5963 88.9563 76.6595 89.7644L77.8698 88.1722C76.8107 87.3672 75.7647 86.5656 74.7326 85.7683L73.5099 87.3511ZM79.8743 92.1885C80.927 92.976 81.9913 93.766 83.0663 94.5578L84.2524 92.9475C83.1814 92.1586 82.1211 91.3715 81.0723 90.587L79.8743 92.1885ZM86.311 96.9292C87.379 97.7037 88.4565 98.4792 89.543 99.2552L90.7054 97.6277C89.6228 96.8545 88.5492 96.0818 87.4852 95.3102L86.311 96.9292ZM92.8185 101.577C93.9002 102.337 94.9899 103.098 96.0869 103.857L97.2255 102.213C96.1325 101.456 95.0468 100.699 93.969 99.9406L92.8185 101.577ZM99.3936 106.129C100.488 106.876 101.59 107.621 102.697 108.364L103.812 106.703C102.708 105.963 101.611 105.221 100.52 104.477L99.3936 106.129ZM106.035 110.585C107.143 111.317 108.256 112.046 109.374 112.772L110.464 111.094C109.35 110.371 108.241 109.645 107.137 108.916L106.035 110.585ZM112.742 114.94C113.864 115.656 114.99 116.369 116.119 117.077L117.182 115.382C116.057 114.677 114.935 113.967 113.818 113.254L112.742 114.94ZM119.517 119.188C120.653 119.888 121.792 120.583 122.934 121.272L123.968 119.56C122.831 118.874 121.697 118.182 120.566 117.485L119.517 119.188ZM126.364 123.325C127.515 124.006 128.667 124.681 129.82 125.35L130.823 123.62C129.675 122.954 128.529 122.282 127.384 121.604L126.364 123.325ZM133.287 127.338C134.452 127.999 135.617 128.653 136.783 129.299L137.752 127.549C136.592 126.907 135.433 126.256 134.274 125.599L133.287 127.338ZM140.289 131.218C141.469 131.855 142.648 132.485 143.826 133.105L144.758 131.335C143.586 130.718 142.413 130.093 141.24 129.458L140.289 131.218ZM147.375 134.946C148.571 135.558 149.765 136.159 150.957 136.75L151.845 134.959C150.661 134.371 149.474 133.774 148.286 133.166L147.375 134.946ZM154.551 138.503C155.765 139.085 156.976 139.655 158.183 140.213L159.021 138.397C157.823 137.844 156.621 137.278 155.415 136.7L154.551 138.503ZM161.824 141.862C163.058 142.41 164.288 142.944 165.513 143.462L166.293 141.621C165.079 141.107 163.86 140.577 162.635 140.034L161.824 141.862ZM169.202 144.988C170.46 145.495 171.712 145.985 172.957 146.458L173.667 144.588C172.435 144.12 171.196 143.635 169.949 143.132L169.202 144.988ZM176.692 147.831C177.979 148.289 179.257 148.726 180.525 149.142L181.148 147.242C179.897 146.831 178.634 146.399 177.361 145.947L176.692 147.831ZM184.341 150.339C185.647 150.73 186.941 151.095 188.222 151.436L188.736 149.503C187.476 149.168 186.201 148.808 184.914 148.423L184.341 150.339ZM192.137 152.406C193.456 152.708 194.759 152.98 196.046 153.222L196.415 151.256C195.156 151.02 193.878 150.753 192.584 150.456L192.137 152.406ZM200.067 153.884C201.429 154.075 202.769 154.227 204.086 154.339L204.256 152.347C202.977 152.238 201.673 152.089 200.344 151.903L200.067 153.884ZM208.104 154.557C209.496 154.587 210.858 154.565 212.189 154.491L212.077 152.494C210.801 152.565 209.491 152.586 208.146 152.557L208.104 154.557ZM216.262 154.077C217.641 153.869 218.98 153.594 220.274 153.248L219.757 151.316C218.54 151.641 217.275 151.902 215.964 152.099L216.262 154.077ZM224.168 151.931C225.453 151.396 226.683 150.775 227.852 150.063L226.812 148.355C225.734 149.011 224.595 149.587 223.399 150.084L224.168 151.931ZM231.209 147.623C232.248 146.726 233.22 145.738 234.12 144.654L232.582 143.376C231.752 144.375 230.857 145.284 229.903 146.108L231.209 147.623ZM236.501 141.288C237.183 140.15 237.805 138.935 238.363 137.641L236.526 136.849C236.002 138.065 235.42 139.201 234.786 140.259L236.501 141.288ZM239.763 133.794C240.149 132.52 240.485 131.183 240.769 129.781L238.808 129.384C238.537 130.728 238.216 132.004 237.849 133.214L239.763 133.794ZM241.408 125.827C241.493 125.141 241.567 124.442 241.631 123.729L239.638 123.552C239.577 124.243 239.505 124.919 239.423 125.58L241.408 125.827ZM241.631 123.729C241.693 123.025 241.746 122.326 241.79 121.631L239.794 121.506C239.751 122.183 239.699 122.865 239.638 123.552L241.631 123.729ZM241.941 117.497C241.955 116.09 241.93 114.702 241.867 113.335L239.869 113.426C239.93 114.757 239.955 116.107 239.941 117.477L241.941 117.497ZM241.555 109.178C241.408 107.781 241.221 106.407 240.995 105.055L239.023 105.385C239.242 106.696 239.423 108.03 239.566 109.387L241.555 109.178ZM240.182 100.978C239.864 99.6133 239.506 98.274 239.109 96.9602L237.194 97.5391C237.579 98.8114 237.926 100.109 238.234 101.431L240.182 100.978ZM237.769 93.0092C237.275 91.6969 236.74 90.4125 236.168 89.1565L234.348 89.9862C234.902 91.2014 235.419 92.4441 235.898 93.7142L237.769 93.0092ZM234.31 85.4232C233.645 84.1938 232.942 82.9946 232.204 81.8259L230.513 82.8944C231.228 84.0251 231.908 85.1853 232.551 86.3746L234.31 85.4232ZM229.86 78.38C229.038 77.2544 228.181 76.1607 227.291 75.0993L225.758 76.3838C226.619 77.4116 227.449 78.4704 228.245 79.5598L229.86 78.38ZM224.512 71.9955C223.551 70.9898 222.559 70.0174 221.539 69.0785L220.185 70.5501C221.174 71.4604 222.135 72.4029 223.066 73.3774L224.512 71.9955ZM218.388 66.3561C217.309 65.4811 216.204 64.6403 215.076 63.834L213.913 65.4614C215.009 66.2443 216.081 67.0604 217.128 67.9095L218.388 66.3561ZM211.619 61.5172C210.444 60.7794 209.248 60.0764 208.032 59.4087L207.069 61.1615C208.251 61.8108 209.413 62.494 210.555 63.2109L211.619 61.5172ZM204.332 57.511C203.08 56.9137 201.812 56.3519 200.53 55.826L199.771 57.6764C201.019 58.1882 202.253 58.7348 203.47 59.3159L204.332 57.511ZM196.641 54.3554C195.331 53.901 194.009 53.4828 192.678 53.1013L192.127 55.0239C193.423 55.3954 194.71 55.8025 195.986 56.245L196.641 54.3554ZM188.652 52.0655C187.3 51.7567 185.941 51.485 184.576 51.2508L184.238 53.2219C185.566 53.45 186.89 53.7145 188.207 54.0153L188.652 52.0655ZM180.462 50.6599C179.083 50.5004 177.702 50.3792 176.321 50.2966L176.201 52.2931C177.546 52.3734 178.89 52.4914 180.232 52.6467L180.462 50.6599ZM172.165 50.165C170.776 50.1603 169.388 50.1952 168.006 50.27L168.114 52.2671C169.458 52.1943 170.807 52.1604 172.158 52.165L172.165 50.165ZM163.859 50.6171C162.477 50.7741 161.103 50.9722 159.739 51.2118L160.085 53.1816C161.409 52.9491 162.743 52.7568 164.085 52.6043L163.859 50.6171ZM155.661 52.0601C154.308 52.3864 152.968 52.7555 151.644 53.1676L152.238 55.0772C153.521 54.6782 154.819 54.3207 156.13 54.0044L155.661 52.0601ZM147.707 54.539C146.409 55.0412 145.13 55.5874 143.872 56.1781L144.722 57.9884C145.937 57.4179 147.174 56.8899 148.429 56.4043L147.707 54.539ZM140.161 58.0862C139.554 58.4267 138.953 58.7785 138.358 59.1416L139.4 60.8485C139.974 60.4984 140.553 60.1591 141.139 59.8305L140.161 58.0862ZM138.358 59.1416C137.753 59.5112 137.169 59.8885 136.607 60.2734L137.736 61.9238C138.269 61.5591 138.824 61.2006 139.4 60.8485L138.358 59.1416ZM133.402 62.7462C132.341 63.6733 131.383 64.637 130.526 65.6358L132.043 66.9385C132.835 66.016 133.725 65.1198 134.718 64.2523L133.402 62.7462ZM128.115 68.9609C127.394 70.1591 126.797 71.3963 126.317 72.6695L128.189 73.374C128.626 72.2148 129.17 71.0869 129.829 69.9923L128.115 68.9609ZM125.222 76.6389C124.979 77.972 124.848 79.3338 124.823 80.7209L126.822 80.7574C126.846 79.4723 126.967 78.2185 127.19 76.9977L125.222 76.6389ZM125.037 84.7955C125.194 86.1097 125.434 87.4427 125.752 88.7923L127.699 88.3336C127.396 87.0512 127.17 85.7922 127.023 84.5581L125.037 84.7955ZM126.864 92.6822C127.281 93.9294 127.758 95.1893 128.291 96.4605L130.135 95.6873C129.62 94.4583 129.161 93.2448 128.761 92.0481L126.864 92.6822ZM129.951 100.097C130.527 101.265 131.145 102.442 131.805 103.626L133.552 102.652C132.908 101.496 132.305 100.349 131.746 99.2136L129.951 100.097ZM133.825 107.07C134.513 108.188 135.235 109.313 135.988 110.442L137.652 109.333C136.911 108.222 136.203 107.119 135.529 106.022L133.825 107.07ZM138.245 113.711C139.003 114.773 139.787 115.839 140.596 116.908L142.191 115.702C141.393 114.647 140.62 113.596 139.873 112.549L138.245 113.711ZM143.043 120.061C143.857 121.084 144.692 122.109 145.546 123.136L147.084 121.857C146.238 120.841 145.412 119.826 144.608 118.815L143.043 120.061ZM148.111 126.158C148.973 127.155 149.852 128.152 150.748 129.15L152.237 127.815C151.349 126.825 150.478 125.837 149.624 124.85L148.111 126.158ZM153.408 132.069C154.3 133.033 155.207 133.997 156.127 134.962L157.574 133.582C156.661 132.624 155.761 131.667 154.875 130.71L153.408 132.069ZM158.883 137.813C159.801 138.751 160.73 139.688 161.67 140.623L163.081 139.207C162.147 138.276 161.224 137.345 160.312 136.414L158.883 137.813ZM164.501 143.412C165.441 144.327 166.39 145.24 167.346 146.152L168.726 144.704C167.775 143.797 166.831 142.889 165.896 141.979L164.501 143.412ZM170.231 148.874C171.192 149.772 172.16 150.668 173.134 151.562L174.486 150.088C173.516 149.199 172.553 148.307 171.596 147.413L170.231 148.874ZM176.065 154.226C177.044 155.109 178.028 155.988 179.016 156.865L180.343 155.368C179.359 154.495 178.379 153.62 177.404 152.741L176.065 154.226ZM181.988 159.48C182.982 160.347 183.979 161.211 184.978 162.071L186.283 160.555C185.287 159.698 184.294 158.837 183.304 157.973L181.988 159.48ZM187.989 164.643C188.996 165.497 190.004 166.347 191.013 167.191L192.297 165.658C191.291 164.816 190.287 163.969 189.283 163.118L187.989 164.643ZM194.058 169.724C195.077 170.567 196.096 171.404 197.114 172.235L198.379 170.686C197.364 169.857 196.348 169.023 195.332 168.183L194.058 169.724ZM200.184 174.729C201.216 175.562 202.246 176.389 203.273 177.209L204.521 175.646C203.497 174.828 202.47 174.003 201.441 173.172L200.184 174.729ZM206.36 179.661C207.406 180.487 208.447 181.305 209.482 182.115L210.714 180.539C209.681 179.731 208.643 178.915 207.6 178.092L206.36 179.661ZM212.596 184.539C213.649 185.354 214.695 186.16 215.732 186.956L216.95 185.369C215.914 184.575 214.871 183.771 213.821 182.957L212.596 184.539ZM218.881 189.361C219.936 190.163 220.98 190.954 222.014 191.733L223.218 190.136C222.186 189.358 221.144 188.569 220.092 187.769L218.881 189.361ZM225.196 194.122C225.72 194.514 226.241 194.902 226.758 195.287L227.953 193.683C227.436 193.299 226.917 192.911 226.394 192.52L225.196 194.122ZM226.758 195.287C227.297 195.689 227.836 196.086 228.375 196.48L229.555 194.865C229.021 194.475 228.487 194.081 227.953 193.683L226.758 195.287ZM231.62 198.807C232.717 199.579 233.814 200.336 234.91 201.079L236.032 199.424C234.946 198.687 233.858 197.937 232.771 197.172L231.62 198.807ZM238.244 203.296C239.368 204.03 240.491 204.749 241.612 205.453L242.676 203.759C241.565 203.061 240.452 202.349 239.337 201.621L238.244 203.296ZM245.012 207.548C246.159 208.242 247.304 208.921 248.444 209.584L249.45 207.856C248.319 207.198 247.185 206.525 246.047 205.837L245.012 207.548ZM251.921 211.569C253.096 212.226 254.265 212.868 255.429 213.494L256.377 211.733C255.223 211.112 254.063 210.476 252.898 209.824L251.921 211.569ZM258.966 215.361C260.162 215.979 261.35 216.581 262.531 217.168L263.421 215.377C262.25 214.795 261.071 214.198 259.885 213.584L258.966 215.361ZM266.123 218.916C267.339 219.496 268.546 220.059 269.741 220.606L270.573 218.787C269.387 218.245 268.19 217.686 266.983 217.111L266.123 218.916ZM273.386 222.238C274.624 222.781 275.848 223.305 277.057 223.812L277.83 221.968C276.631 221.465 275.417 220.944 274.188 220.406L273.386 222.238ZM280.754 225.328C282.014 225.833 283.256 226.319 284.477 226.786L285.191 224.918C283.98 224.455 282.748 223.973 281.498 223.472L280.754 225.328ZM288.225 228.186C289.51 228.653 290.768 229.1 291.998 229.525L292.651 227.635C291.432 227.213 290.184 226.77 288.91 226.306L288.225 228.186ZM295.791 230.803C297.1 231.232 298.37 231.635 299.598 232.015L300.189 230.104C298.971 229.728 297.712 229.328 296.413 228.902L295.791 230.803ZM303.413 233.159C304.769 233.553 306.061 233.914 307.283 234.245L307.805 232.314C306.595 231.987 305.315 231.629 303.97 231.238L303.413 233.159ZM311.149 235.251C312.594 235.611 313.898 235.919 315.048 236.179L315.488 234.228C314.352 233.971 313.063 233.667 311.634 233.31L311.149 235.251ZM318.967 237.008C319.605 237.133 320.095 237.223 320.427 237.281C320.593 237.311 320.72 237.332 320.806 237.347C320.848 237.354 320.881 237.359 320.903 237.363C320.914 237.365 320.923 237.366 320.929 237.367C320.932 237.368 320.934 237.368 320.936 237.368C320.937 237.368 320.937 237.369 320.938 237.369C320.938 237.369 320.938 237.369 320.938 237.369C320.939 237.369 320.939 237.369 320.939 237.369C320.939 237.369 320.939 237.369 320.939 237.369C320.939 237.369 320.939 237.369 321.096 236.381C321.254 235.394 321.254 235.394 321.254 235.394C321.254 235.394 321.254 235.394 321.254 235.394C321.254 235.394 321.254 235.394 321.254 235.394C321.254 235.394 321.254 235.394 321.254 235.394C321.254 235.394 321.253 235.394 321.253 235.394C321.252 235.393 321.25 235.393 321.248 235.393C321.244 235.392 321.236 235.391 321.227 235.389C321.207 235.386 321.177 235.381 321.137 235.374C321.057 235.361 320.936 235.34 320.776 235.312C320.455 235.255 319.976 235.168 319.35 235.045L318.967 237.008Z" fill="#009254"/>
</svg>
